<svg width="32" height="32" viewBox="0 0 32 32" fill="none" xmlns="http://www.w3.org/2000/svg">
<g clip-path="url(#clip0_575_4595)">
<path d="M15.9998 2.66675C8.63984 2.66675 2.6665 8.64008 2.6665 16.0001C2.6665 23.3601 8.63984 29.3334 15.9998 29.3334C23.3598 29.3334 29.3332 23.3601 29.3332 16.0001C29.3332 8.64008 23.3598 2.66675 15.9998 2.66675ZM15.9998 8.00008C18.5732 8.00008 20.6665 10.0934 20.6665 12.6667C20.6665 15.2401 18.5732 17.3334 15.9998 17.3334C13.4265 17.3334 11.3332 15.2401 11.3332 12.6667C11.3332 10.0934 13.4265 8.00008 15.9998 8.00008ZM15.9998 26.6667C13.2932 26.6667 10.0932 25.5734 7.81317 22.8267C10.0665 21.0667 12.9065 20.0001 15.9998 20.0001C19.0932 20.0001 21.9332 21.0667 24.1865 22.8267C21.9065 25.5734 18.7065 26.6667 15.9998 26.6667Z" fill="#718096"/>
</g>
<defs>
<clipPath id="clip0_575_4595">
<rect width="32" height="32" fill="white"/>
</clipPath>
</defs>
</svg>
